<?xml version="1.0" encoding="utf-8"?>
<!-- Generator: Adobe Illustrator 24.1.0, SVG Export Plug-In . SVG Version: 6.00 Build 0)  -->
<svg version="1.1" id="Capa_1" xmlns="http://www.w3.org/2000/svg" xmlns:xlink="http://www.w3.org/1999/xlink" x="0px" y="0px"
	 viewBox="0 0 500 500" style="enable-background:new 0 0 500 500;" xml:space="preserve">
<style type="text/css">
	.st0{fill:#FDFDFD;}
</style>
<g>
	<path d="M487.25,496.96H12.75c-5.38,0-9.75-4.37-9.75-9.75V12.83c0-5.38,4.37-9.75,9.75-9.75h474.5c5.38,0,9.75,4.37,9.75,9.75
		v474.39C497,492.6,492.63,496.96,487.25,496.96z"/>
	<g>
		<g>
			<g>
				<path class="st0" d="M264.95,219.48c5.35-6.01,9.76-12.11,15.25-17.29c16.88-15.91,36.86-23.94,60.18-23.74
					c12.81,0.11,25.48,1.03,37.84,4.61c28.26,8.17,44.69,27.63,52.52,55.23c5.87,20.7,6.96,41.96,6.99,63.28
					c0.08,44.98-0.13,89.96-0.03,134.93c0.01,4.21-1.17,5.32-5.32,5.28c-23.17-0.19-46.35-0.2-69.52,0.01
					c-4.08,0.04-4.96-1.23-4.95-5.08c0.13-42.8,0.16-85.6,0.02-128.39c-0.03-10.73-0.72-21.44-3.73-31.87
					c-5.54-19.21-19.29-29-39.42-27.93c-27.48,1.45-41.77,15.06-45.27,43c-0.84,6.67-1.23,13.35-1.23,20.07
					c0.04,41.62-0.04,83.25,0.11,124.87c0.02,4.15-1.03,5.37-5.27,5.34c-23.34-0.21-46.68-0.18-70.02-0.02
					c-3.74,0.03-4.82-0.98-4.82-4.77c0.1-82.41,0.11-164.82,0-247.22c-0.01-4.08,1.33-5.02,5.19-4.99
					c22.16,0.16,44.33,0.18,66.49-0.01c4.08-0.04,5.13,1.28,5.04,5.15C264.8,199.77,264.95,209.63,264.95,219.48z"/>
				<path class="st0" d="M137.99,313.66c0,40.77-0.07,81.54,0.1,122.3c0.02,4.53-1.11,5.9-5.8,5.85
					c-23.16-0.25-46.33-0.2-69.49-0.03c-3.71,0.03-4.83-0.9-4.83-4.74c0.11-82.54,0.1-165.09,0.02-247.63
					c0-3.42,0.82-4.63,4.45-4.61c23.5,0.15,47,0.2,70.5-0.03c4.51-0.04,5.13,1.71,5.12,5.58
					C137.95,231.45,137.99,272.55,137.99,313.66z"/>
				<path class="st0" d="M144.38,103c0.03,25.6-20.75,46.45-46.29,46.46c-25.21,0.01-46.16-20.86-46.24-46.06
					C51.76,77.92,72.7,56.94,98.19,56.97C123.5,56.99,144.35,77.78,144.38,103z"/>
			</g>
		</g>
	</g>
</g>
</svg>
