<?xml version="1.0" encoding="utf-8"?>
<!-- Generator: Adobe Illustrator 24.1.0, SVG Export Plug-In . SVG Version: 6.00 Build 0)  -->
<svg version="1.1" id="Capa_1" xmlns="http://www.w3.org/2000/svg" xmlns:xlink="http://www.w3.org/1999/xlink" x="0px" y="0px"
	 viewBox="0 0 500 500" style="enable-background:new 0 0 500 500;" xml:space="preserve">
<g>
	<g>
		<path d="M250.82,46.53c66.53,0,74.41,0.25,100.69,1.45c24.29,1.11,37.49,5.17,46.27,8.58c11.63,4.52,19.93,9.92,28.65,18.64
			c8.72,8.72,14.12,17.02,18.64,28.65c3.41,8.78,7.47,21.97,8.58,46.27c1.2,26.28,1.45,34.16,1.45,100.69s-0.25,74.42-1.45,100.69
			c-1.11,24.29-5.17,37.49-8.58,46.27c-4.52,11.63-9.92,19.93-18.64,28.65c-8.72,8.72-17.02,14.12-28.65,18.64
			c-8.78,3.41-21.97,7.47-46.27,8.58c-26.27,1.2-34.15,1.45-100.69,1.45c-66.54,0-74.42-0.25-100.69-1.45
			c-24.29-1.11-37.49-5.17-46.27-8.58c-11.63-4.52-19.93-9.92-28.65-18.64c-8.72-8.72-14.12-17.02-18.64-28.65
			c-3.41-8.78-7.47-21.97-8.58-46.27c-1.2-26.28-1.45-34.16-1.45-100.69s0.25-74.42,1.45-100.69c1.11-24.29,5.17-37.49,8.58-46.27
			c4.52-11.63,9.92-19.93,18.64-28.65c8.72-8.72,17.02-14.12,28.65-18.64c8.78-3.41,21.97-7.47,46.27-8.58
			C176.4,46.79,184.28,46.53,250.82,46.53 M250.82,1.64c-67.67,0-76.16,0.29-102.74,1.5c-26.52,1.21-44.64,5.42-60.49,11.58
			c-16.39,6.37-30.28,14.89-44.14,28.74C29.61,57.31,21.09,71.21,14.72,87.59c-6.16,15.85-10.37,33.96-11.58,60.49
			c-1.21,26.58-1.5,35.06-1.5,102.74c0,67.67,0.29,76.16,1.5,102.74c1.21,26.52,5.42,44.64,11.58,60.49
			c6.37,16.39,14.89,30.28,28.74,44.14c13.85,13.85,27.75,22.37,44.14,28.74c15.85,6.16,33.96,10.37,60.49,11.58
			c26.58,1.21,35.06,1.5,102.74,1.5c67.67,0,76.16-0.29,102.74-1.5c26.52-1.21,44.64-5.42,60.49-11.58
			c16.39-6.37,30.28-14.89,44.14-28.74c13.85-13.85,22.37-27.75,28.74-44.14c6.16-15.85,10.37-33.96,11.58-60.49
			c1.21-26.58,1.5-35.06,1.5-102.74s-0.29-76.16-1.5-102.74c-1.21-26.52-5.42-44.64-11.58-60.49
			c-6.37-16.39-14.89-30.28-28.74-44.14c-13.85-13.85-27.75-22.37-44.14-28.74c-15.85-6.16-33.96-10.37-60.49-11.58
			C326.98,1.92,318.49,1.64,250.82,1.64L250.82,1.64z"/>
		<path d="M250.82,122.86c-70.67,0-127.96,57.29-127.96,127.96s57.29,127.96,127.96,127.96c70.67,0,127.96-57.29,127.96-127.96
			S321.49,122.86,250.82,122.86z M250.82,333.88c-45.87,0-83.06-37.19-83.06-83.06s37.19-83.06,83.06-83.06s83.06,37.19,83.06,83.06
			S296.69,333.88,250.82,333.88z"/>
		<circle cx="383.83" cy="117.8" r="29.9"/>
	</g>
</g>
</svg>
