<?xml version="1.0" encoding="utf-8"?>
<!-- Generator: Adobe Illustrator 24.1.0, SVG Export Plug-In . SVG Version: 6.00 Build 0)  -->
<svg version="1.1" id="Capa_1" xmlns="http://www.w3.org/2000/svg" xmlns:xlink="http://www.w3.org/1999/xlink" x="0px" y="0px"
	 viewBox="0 0 500 500" style="enable-background:new 0 0 500 500;" xml:space="preserve">
<style type="text/css">
	.st0{fill:#FFFFFF;}
</style>
<g>
	<path d="M493.04,249c0-135.31-109.03-245-243.52-245S6,113.69,6,249c0,122.29,89.05,223.64,205.47,242.02v-171.2h-61.83V249h61.83
		v-53.98c0-61.4,36.36-95.32,91.98-95.32c26.64,0,54.51,4.78,54.51,4.78v60.29h-30.71c-30.25,0-39.68,18.89-39.68,38.26V249h67.54
		l-10.8,70.82h-56.74v171.2C403.99,472.64,493.04,371.29,493.04,249z"/>
	<path class="st0" d="M344.31,319.82l10.8-70.82h-67.54v-45.96c0-19.38,9.43-38.26,39.68-38.26h30.71v-60.29
		c0,0-27.87-4.78-54.51-4.78c-55.62,0-91.98,33.92-91.98,95.32V249h-61.83v70.82h61.83v171.2c12.4,1.96,25.11,2.98,38.05,2.98
		s25.65-1.02,38.05-2.98v-171.2H344.31z"/>
</g>
</svg>
